# xmcd
#
# Track frame offsets:
#	150
#	15733
#	31800
#	48393
#	65236
#	81446
#	97573
#	117937
#	132314
#	149990
#	165938
#	182125
#
# Disc length: 2644 seconds
# Revision: 0
# Processed by: cddbd v1.5.2PL0 Copyright (c) Steve Scherf et al.
# Submitted via: dBpowerAMP V12.0
#
DISCID=a30a520c
DTITLE=Ursula George - One Steady Roll
DYEAR=2013
DGENRE=Blues
TTITLE0=Take Your Finger Off It
TTITLE1=Ain't Got Nobody to Grind My Coffee
TTITLE2=Muscle Shoals Blues
TTITLE3=My Man Rocks Me (with One Steady Roll)
TTITLE4=Blues for Honeyboy
TTITLE5=Wicked Blues
TTITLE6=I'll Get Even
TTITLE7=Double Crossin' Papa
TTITLE8=My Handyman Ain't Handy No More
TTITLE9=(Let's Get Naked and) Break Things
TTITLE10=Wicked Blues (Mono)
TTITLE11=Blues for Honeyboy (Mono)
EXTD=
EXTT0=
EXTT1=
EXTT2=
EXTT3=
EXTT4=
EXTT5=
EXTT6=
EXTT7=
EXTT8=
EXTT9=
EXTT10=
EXTT11=
PLAYORDER=
